<svg version="1.1" id="doge" xmlns="http://www.w3.org/2000/svg" width="60px" height="60px" viewBox="0 0 60 60" xml:space="preserve">
<rect x="0" y="0" fill="#FFFFFF" width="60" height="60"/>
<g>
	<path fill="#2BBBAD" d="M20.583643,15.228817c0-0.7933731-0.0108109-1.5994759,0.0030689-2.4051523
		c0.0136013-0.7893848,0.0547028-1.5783482,0.3039913-2.3380117c0.1668587-0.5084696,0.4448853-0.9393539,0.8724499-1.2735548
		c0.3072567-0.2401628,0.6690121-0.2884922,1.0335674-0.3376694c1.0195179-0.1375294,1.7667408,0.392087,2.3780022,1.0867109
		c0.6896095,0.7836571,1.2907448,1.6454802,1.9249058,2.4774637c0.2364426,0.3102007,0.4496384,0.6383324,0.6911106,0.9443398
		c0.0597477,0.075716,0.1864185,0.1310549,0.2858715,0.1370621c0.3277912,0.0197983,0.6594963-0.0110188,0.985569,0.0204268
		c0.9239197,0.089097,1.8534546,0.1547461,2.7668018,0.3111954c1.6441059,0.2816219,3.2237072,0.7900209,4.7263889,1.5237551
		c0.0343857,0.0167894,0.0701637,0.0307255,0.1220169,0.0532598c0.3183022-0.4057999,0.6281776-0.815053,0.9529037-1.2121544
		c0.9523468-1.1645994,1.9333344-2.3030243,3.166935-3.1870899c0.5936928-0.4254732,1.2301826-0.7593746,1.9740143-0.845892
		c0.8999634-0.1046772,1.6569977,0.2100286,2.3227119,0.7825603c0.9189186,0.7902956,1.4880562,1.8198671,1.9193497,2.9268541
		c0.7970619,2.0457878,1.092598,4.1708403,0.9536362,6.3612185c-0.1032257,1.6270199-0.4811783,3.1820641-1.1177597,4.6833706
		c-0.4122925,0.9723415-0.4237633,1.9720726-0.1562233,3.0020008c0.4933548,1.8992786,0.6184578,3.8368893,0.4721489,5.7926407
		c-0.2816582,3.7650108-1.5661278,7.153492-3.8883171,10.1261673c-2.7771683,3.5551033-6.3803749,5.8372726-10.7852287,6.8416328
		c-1.727335,0.3938522-3.4774132,0.5171127-5.2419147,0.4113159c-1.2226009-0.0733032-2.424181-0.2784576-3.6142406-0.5861702
		c-2.206459-0.5705109-4.2375412-1.5095406-6.0833683-2.8336639c-3.7438879-2.6857109-6.205246-6.2661972-7.3729753-10.7258949
		c-0.4603577-1.7581596-0.6414328-3.5527878-0.5602894-5.3661041c0.1859846-4.1562042,1.570529-7.8701191,4.1890926-11.1100368
		C15.6448984,18.2164536,17.9022503,16.4756298,20.583643,15.228817z M40.6713829,15.1243677
		c-0.0079651,0.1084881,0.0013466,0.2216711-0.0266647,0.3247089c-0.1957054,0.7198629-0.3964233,1.4383993-0.6007652,2.1558695
		c-0.2638168,0.9262962-0.4085007,1.8591385-0.0658455,2.793375c0.1353416,0.3689976,0.3375473,0.7134686,0.5093079,1.0691071
		c-0.9474869-0.6764641-1.7195969-1.5169697-2.3415527-2.4987774c-0.5621834-0.8874569-1.2847137-1.603159-2.2059822-2.1243591
		c-1.0078316-0.5701714-2.0748215-0.9427671-3.2318306-1.0104599c-1.4311295-0.0837297-2.7503681,0.3054848-3.9812012,1.0201149
		c-1.4647293,0.8504314-2.6407433,2.0160542-3.6376305,3.3691711c-0.7665958,1.0405312-1.429451,2.1399784-1.7966614,3.4480457
		c0-0.1633224-0.0098076-0.2785072,0.0015678-0.3915577c0.0843639-0.8384533,0.3006458-1.6434708,0.6688805-2.4004574
		c1.0262089-2.1095963,2.6014595-3.7068253,4.6062565-4.8994751c0.1182289-0.0703344,0.2340221-0.1602058,0.3198509-0.2661724
		c0.1532593-0.1892109,0.1103363-0.3584414-0.1205788-0.4410448c-0.2032337-0.0727005-0.4207535-0.1306047-0.6349773-0.1429901
		c-0.8375149-0.048419-1.668438,0.0294352-2.4945602,0.170681c-0.5758591,0.0984583-1.0415726-0.0801687-1.3982658-0.554491
		c-0.3676472-0.4888906-0.618351-1.0357542-0.7685814-1.6193275c-0.1840839-0.7150908-0.3405514-1.4393272-0.4630375-2.1673355
		c-0.0569-0.3382044,0.0678368-0.4241228,0.4152622-0.4353123c0.0128613,0.0056305,0.0257225,0.01126,0.0385857,0.0168896
		c-0.0109978-0.0074482-0.0219936-0.0148964-0.0329933-0.0223446c-0.4977684-0.2718458-0.8306198-0.1522837-1.0286369,0.3726234
		c-0.23843,0.6320324-0.2521648,1.3003311-0.2798004,1.9599199c-0.0320854,0.7657528-0.0112667,1.5337734-0.0109234,2.3008089
		c0.0001316,0.2963381,0.0951023,0.4189701,0.3815136,0.4643011c0.1281395,0.0202808,0.2629852,0.0037003,0.3943996-0.0033827
		c0.2525997-0.0136137,0.5089397-0.0609503,0.7661572,0.1106262c-0.3922615,0.1338377-0.7613754,0.2538128-1.1263523,0.3852701
		c-2.4141464,0.8695202-4.5182819,2.2316856-6.3339634,4.0358219c-0.8999853,0.8942585-1.6885986,1.8843422-2.366374,2.9602451
		c-0.8547525,1.3568363-1.5142202,2.8003922-1.9699535,4.3392811c-0.317831,1.0732327-0.5227871,2.1672821-0.6334391,3.2782364
		c-0.0438948,0.4407043-0.0282698,0.8873386-0.0397444,1.3312721c0.0021048,0.1015968,0.0106106,0.2035217,0.0053473,0.3047333
		c-0.0737886,1.4191322,0.1312628,2.8084183,0.481967,4.1759224c1.0481691,4.0871544,3.2759686,7.3908882,6.7106333,9.8371391
		c4.0469589,2.8823433,8.559,3.850441,13.4187717,2.8852425c4.8768463-0.9685936,8.6426125-3.6471214,11.296566-7.8472404
		c1.5381393-2.4342384,2.3805962-5.1094704,2.533165-7.9930954c0.0078964-0.0537796,0.0233879-0.1076736,0.0225525-0.1613197
		c-0.0120735-0.7735558,0.0213966-1.5516796-0.052597-2.3194027c-0.085701-0.8892555-0.2149353-1.7814617-0.4194298-2.6502228
		c-0.2299919-0.9771023-0.3214455-1.9447155-0.0717964-2.9153557c0.1527519-0.5939312,0.394928-1.1651058,0.6011963-1.7449894
		c0.61026-1.7156219,0.8349533-3.4783478,0.7089081-5.2963295c-0.0964165-1.390646-0.3758049-2.7339935-0.9067039-4.0208569
		c-0.3235168-0.7841721-0.7279778-1.5242186-1.3577156-2.1147947c-0.5690842-0.5336905-1.1170006-0.6111326-1.8207283-0.2778711
		c-0.7421455,0.3514519-1.3324356,0.9018841-1.9010353,1.4704351c-0.9801102,0.9800262-1.8257751,2.0754824-2.6683998,3.1739264
		c-0.2794533,0.3642921-0.2900505,0.7024555-0.1042099,1.0853825c0.0443726,0.0914288,0.0872345,0.1836567,0.1340408,0.2738304
		c0.169838,0.3271732,0.2831917,0.3640594,0.5341415,0.0914803c0.4381943-0.4759598,0.8544769-0.973135,1.2620926-1.4758968
		C39.9624786,16.0740547,40.3117256,15.5949907,40.6713829,15.1243677z"/>
	<path opacity="0.1" fill="#2BBBAD" d="M45.6292992,33.4159508c-0.1525688,2.883625-0.9950256,5.558857-2.533165,7.9930954
		c-2.6539536,4.200119-6.4197197,6.8786469-11.296566,7.8472404c-4.8597717,0.9651985-9.3718128-0.0028992-13.4187717-2.8852425
		c-3.4346647-2.4462509-5.6624641-5.7499847-6.7106333-9.8371391c-0.3507042-1.3675041-0.5557556-2.7567902-0.481967-4.1759224
		c0.0052633-0.1012115-0.0032425-0.2031364-0.0054026-0.3047714c0.0239315-0.0606003,0.0619392-0.1194973,0.0693674-0.182024
		c0.0257607-0.2168312,0.0300884-0.4365177,0.0618582-0.6522751c0.1836605-1.2472992,0.4824858-2.4641323,0.9806499-3.626627
		c0.5911598-1.3795052,1.364686-2.6410122,2.4686689-3.6707039c0.3211184-0.2995071,0.7011099-0.545908,1.082653-0.767519
		c0.3172016-0.1842384,0.4957886-0.0849609,0.5284843,0.2769127c0.030508,0.3376637,0.0351181,0.6878929-0.0192585,1.021101
		c-0.1719017,1.0533543-0.396946,2.0982513-0.5577936,3.1530743c-0.0549412,0.3602962,0.0192432,0.7402859,0.0343943,1.1112366
		c-0.401865,0.2153912-0.7816687,0.5074558-1.2100296,0.6305637c-0.9389935,0.2698555-1.7321014,0.7186413-2.2762051,1.5405197
		c-0.7680159,1.1601028-1.0308237,2.4600868-0.9239092,3.8246193c0.0969734,1.2376709,0.6704826,2.2114868,1.7894812,2.8242912
		c0.0606689,0.033226,0.1012268,0.1437035,0.1109934,0.223156c0.113759,0.9255676,0.4646196,1.7314873,1.1764011,2.3560257
		c0.7717266,0.6771278,1.7075243,0.9942741,2.6917944,1.1774445c1.922863,0.3578415,3.8603439,0.5226402,5.8145866,0.3304825
		c1.054533-0.1036911,2.085474-0.3182716,3.0390797-0.8045311c0.7730026-0.3941689,1.4216137-0.91959,1.6942196-1.7868919
		c0.1260071-0.400898,0.2457066-0.8075447,0.3192348-1.2203217c0.1216278-0.6827965,0.1167431-1.3721962,0.0063019-2.1250839
		c-0.0213928,0.0880547-0.0279865,0.109848-0.0319099,0.1321144c-0.1775436,1.0069847-0.4561386,1.9769211-1.0363827,2.8368797
		c-0.4686317,0.6945343-1.0761509,1.1671562-1.9238949,1.339035c-0.8330631,0.1689072-1.6727753,0.2841797-2.5150967,0.2504997
		c-1.3042183-0.0521584-2.6074142-0.1585655-3.9071865-0.2824478c-0.7682571-0.0732193-1.5305061-0.2143326-2.2582245-0.4974556
		c-1.0576582-0.4114838-1.6122084-1.2272453-1.538765-2.2815552c0.0148392,0.0012398,0.0324202-0.0023079,0.0441027,0.004406
		c1.1911516,0.6846504,2.4790812,0.8723106,3.8252344,0.7250824c0.3267365-0.0357399,0.6261139-0.0055199,0.9331493,0.1110039
		c0.2831192,0.1074409,0.5817986,0.1773376,0.8774414,0.2477455c1.3787727,0.3283806,2.7458076,0.3340988,4.0716057-0.2239227
		c0.4034328-0.1698036,0.7741203-0.417408,1.1598053-0.6293793c-0.0119514-0.0172997-0.0239048-0.0345955-0.0358562-0.0518951
		c-3.2003708,0.8442192-6.1461716,0.4056129-8.7871227-1.725605c-0.0593109,0.0472641-0.1441345,0.1306381-0.2429733,0.1911049
		c-0.7412024,0.4534111-1.5206003,0.7272758-2.4005995,0.47192c-0.6437836-0.1868134-1.0976915-0.5973549-1.2431812-1.2507706
		c-0.2748423-1.2343445-0.0516911-2.3945465,0.6833973-3.4307327c0.2784014-0.392437,0.6841402-0.6359997,1.1642504-0.7358265
		c0.0111227,0.0122261,0.0222445,0.0244522,0.0333652,0.0366783c-0.0501614,0.2189331-0.1295395,0.4360924-0.1429548,0.6572533
		c-0.0161171,0.2657242,0.1583157,0.4471111,0.4204969,0.5767994c-0.4206285,0.0663528-0.5523739,0.2216339-0.4598293,0.5989151
		c0.0654612,0.266861,0.1753864,0.5393486,0.3304491,0.7645874c0.4550381,0.6609535,1.0854063,1.1401711,1.7513132,1.5726128
		c0.0525608,0.0341339,0.1378651,0.0538521,0.196167,0.0377083c0.8297672-0.2297249,1.6447639-0.4993134,2.3524017-1.0106201
		c0.3421879-0.247242,0.6209583-0.5459137,0.7022362-0.9870377c0.0241871-0.1312675,0.066021-0.2708206,0.1396198-0.3796158
		c0.5528851-0.8173027,0.5472527-1.3201847-0.0397892-2.0988426c-0.004528-0.0060024-0.0057926-0.0144634-0.0085812-0.0217781
		c0.0673485-0.0175571,0.1375523-0.0280094,0.2016201-0.0537338c1.0182724-0.4088821,2.0653286-0.5244236,3.1469326-0.3233967
		c1.548069,0.2877254,2.5638733,1.3301315,2.7694836,2.8662281c0.0436344,0.3259888,0.0452137,0.6576004,0.0693607,1.0367088
		c0.5275803-1.0595169,0.4365864-2.1161194,0.2029667-3.1991272c0.3625126,0.1112232,0.6797047,0.2211323,1.0035191,0.3056564
		c1.2309799,0.3213234,2.4739666,0.4425964,3.7291489,0.1565437c0.6114044-0.1393337,1.1882458-0.3682842,1.706892-0.7779675
		c-0.4147682-0.1457424-0.8054504-0.2830181-1.2473278-0.4382858c0.7484531-0.2834473,1.402174-0.5939255,1.9912014-1.0325394
		c0.5986061-0.4457436,1.0686646-0.9963989,1.3906822-1.663887c2.0302429,1.5135765,4.3380585,1.7577553,6.7932587,1.6381702
		c-0.1749306-0.402523-0.3200874-0.7365284-0.4818192-1.1086693c0.9635239,0.3618965,2.1714745,1.2466621,2.8137207,2.0378017
		c0.6526909,0.8040066,1.1016922,1.7004757,1.253006,2.7345371C45.5487328,33.0140648,45.592205,33.2145424,45.6292992,33.4159508z"
		/>
	<path opacity="0.3" fill="#2BBBAD" d="M45.6292992,33.4159508c-0.0370941-0.2014084-0.0805664-0.401886-0.110199-0.6043892
		c-0.1513138-1.0340614-0.6003151-1.9305305-1.253006-2.7345371c-0.6422462-0.7911396-1.8501968-1.6759052-2.8137207-2.0378017
		c0.1617317,0.3721409,0.3068886,0.7061462,0.4818192,1.1086693c-2.4552002,0.119585-4.7630157-0.1245937-6.7932587-1.6381702
		c-0.3220177,0.6674881-0.7920761,1.2181435-1.3906822,1.663887c-0.5890274,0.4386139-1.2427483,0.7490921-1.9912014,1.0325394
		c0.4418774,0.1552677,0.8325596,0.2925434,1.2473278,0.4382858c-0.5186462,0.4096832-1.0954876,0.6386337-1.706892,0.7779675
		c-1.2551823,0.2860527-2.4981689,0.1647797-3.7291489-0.1565437c-0.3238144-0.0845242-0.6410065-0.1944332-1.0035191-0.3056564
		c0.2336197,1.0830078,0.3246136,2.1396103-0.2029667,3.1991272c-0.024147-0.3791084-0.0257263-0.7107201-0.0693607-1.0367088
		c-0.2056103-1.5360966-1.2214146-2.5785027-2.7694836-2.8662281c-1.081604-0.2010269-2.1286602-0.0854855-3.1469326,0.3233967
		c-0.0640678,0.0257244-0.1342716,0.0361767-0.2015877,0.0536995c-0.2087746-0.1200523-0.4088898-0.2598152-0.6280594-0.3562965
		c-0.5981102-0.2632942-1.2310371-0.3943634-1.8810997-0.4461174c-0.265131-0.0211105-0.5302811-0.0419903-0.8266506-0.0654469
		c0.1777401-0.150095,0.3363266-0.2658787,0.4736137-0.4029884c0.7185783-0.7176342,1.4632683-1.4125652,2.1383896-2.1693516
		c0.7499695-0.8406906,1.2354031-1.8588696,1.7227726-2.8667412c0.148901-0.3079243,0.2787647-0.6250534,0.4173489-0.9379654
		l-0.0007153,0.0051689c0.0164738-0.0328293,0.0329456-0.0656567,0.0494156-0.098484
		c0.0198307-0.0983696,0.0340023-0.1983013,0.0606098-0.2948017c0.0661907-0.240057,0.1557789-0.4750233,0.2041874-0.718359
		c0.1275558-0.6411781-0.2193718-1.2548447-0.7610054-1.3752537c-0.5643997-0.1254673-1.3904762,0.2040005-1.7343864,0.6946964
		c0.1982021,0.185112,0.3154068,0.4007511,0.264452,0.6057701c-0.3705311,0.1894474-0.7111454,0.3157387-0.9971027,0.5189457
		c-0.7989941,0.5677891-1.3203354,1.3643093-1.7154522,2.2449436c-0.1707382,0.3805466-0.2734909,0.7889671-0.1882153,1.2095222
		c0.1236515,0.6098042,0.5435295,0.942337,1.1122589,1.1184502c-0.2583237,0.2011223-0.5069294,0.4165611-0.7772198,0.60005
		c-0.4181423,0.2838631-0.8511009,0.5459042-1.2777758,0.8171978c-0.0151863-0.3709908-0.0893707-0.7509804-0.0344296-1.1112766
		c0.1608477-1.0548229,0.3858919-2.09972,0.5577936-3.1530743c0.0543766-0.3332081,0.0497665-0.6834373,0.0192585-1.021101
		c-0.0326958-0.3618736-0.2112827-0.4611511-0.5284843-0.2769127c-0.3815432,0.221611-0.7615347,0.4680119-1.082653,0.767519
		c-1.1039829,1.0296917-1.8775091,2.2911987-2.4686689,3.6707039c-0.4981642,1.1624947-0.7969894,2.3793278-0.9806499,3.626627
		c-0.0317698,0.2157574-0.0360975,0.4354439-0.0618582,0.6522751c-0.0074282,0.0625267-0.0454359,0.1214237-0.0693665,0.182024
		c0.011529-0.4438953-0.004096-0.8905296,0.0397987-1.331234c0.110652-1.1109543,0.315608-2.2050037,0.6334391-3.2782364
		c0.4557333-1.5388889,1.115201-2.9824448,1.9699535-4.3392811c0.6777754-1.0759029,1.4663887-2.0659866,2.366374-2.9602451
		c1.8156815-1.8041363,3.919817-3.1663017,6.3339634-4.0358219c0.3649769-0.1314573,0.7340908-0.2514324,1.1263523-0.3852701
		c-0.2572174-0.1715765-0.5135574-0.1242399-0.7661572-0.1106262c-0.1314144,0.0070829-0.2662601,0.0236635-0.3943996,0.0033827
		c-0.2864113-0.045331-0.381382-0.167963-0.3815136-0.4643011c-0.0003433-0.7670355-0.021162-1.5350561,0.0109234-2.3008089
		c0.0276356-0.6595888,0.0413704-1.3278875,0.2798004-1.9599199c0.1980171-0.5249071,0.5308685-0.6444693,1.0286369-0.3726234
		l-0.0057888,0.0056458c-0.347229,0.0109987-0.4719658,0.0969172-0.4150658,0.4351215
		c0.1224861,0.7280083,0.2789536,1.4522448,0.4630375,2.1673355c0.1502304,0.5835733,0.4009342,1.1304369,0.7685814,1.6193275
		c0.3566933,0.4743223,0.8224068,0.6529493,1.3982658,0.554491c0.8261223-0.1412458,1.6570454-0.2191,2.4945602-0.170681
		c0.2142239,0.0123854,0.4317436,0.0702896,0.6349773,0.1429901c0.2309151,0.0826035,0.273838,0.2518339,0.1205788,0.4410448
		c-0.0858288,0.1059666-0.201622,0.195838-0.3198509,0.2661724c-2.004797,1.1926498-3.5800476,2.7898788-4.6062565,4.8994751
		c-0.3682346,0.7569866-0.5845165,1.5620041-0.6688805,2.4004574c-0.0113754,0.1130505-0.0015678,0.2282352-0.0015678,0.3915577
		c0.3672104-1.3080673,1.0300655-2.4075146,1.7966614-3.4480457c0.9968872-1.353117,2.1729012-2.5187397,3.6376305-3.3691711
		c1.2308331-0.7146301,2.5500717-1.1038446,3.9812012-1.0201149c1.1570091,0.0676928,2.223999,0.4402885,3.2318306,1.0104599
		c0.9212685,0.5212002,1.6437988,1.2369022,2.2059822,2.1243591c0.6219559,0.9818077,1.3940659,1.8223133,2.3415489,2.498785
		c0.7747498,0.5302658,1.6028595,0.944025,2.5461464,1.0536232c0.8085098,0.0939407,1.3343544-0.0614128,1.620636-0.8604717
		c0.2942543-0.8212967,0.4193993-1.6673908,0.4174652-2.5238667c-0.0016823-0.7449398-0.079628-1.4941521-0.1826134-2.2332935
		c-0.1286011-0.9230118-0.3884811-1.8151569-0.8410492-2.6396751c-0.1925812-0.3508501-0.4149094-0.6774054-0.749321-0.915822
		c-0.2749672-0.1960373-0.5447197-0.2369528-0.8466263-0.0560656c-0.7571297,0.4536409-1.2761841,1.1352253-1.7806664,1.8325033
		c-0.3596573,0.470623-0.7089043,0.949687-1.081768,1.4095984c-0.4076157,0.5027618-0.8238983,0.9999371-1.2620926,1.4758968
		c-0.2509499,0.2725792-0.3643036,0.235693-0.5341415-0.0914803c-0.0468063-0.0901737-0.0896683-0.1824017-0.1340408-0.2738304
		c-0.1858406-0.3829269-0.1752434-0.7210903,0.1042099-1.0853825c0.8426247-1.098444,1.6882896-2.1939001,2.6683998-3.1739264
		c0.5685997-0.5685511,1.1588898-1.1189833,1.9010353-1.4704351c0.7037277-0.3332615,1.2516441-0.2558193,1.8207283,0.2778711
		c0.6297379,0.5905762,1.0341988,1.3306227,1.3577156,2.1147947c0.530899,1.2868633,0.8102875,2.6302109,0.9067039,4.0208569
		c0.1260452,1.8179817-0.0986481,3.5807076-0.7089081,5.2963295c-0.2062683,0.5798836-0.4484444,1.1510582-0.6011963,1.7449894
		c-0.249649,0.9706402-0.1581955,1.9382534,0.0717964,2.9153557c0.2044945,0.8687611,0.3337288,1.7609673,0.4194298,2.6502228
		c0.0739937,0.7677231,0.0405235,1.5458469,0.052597,2.3194027C45.6526871,33.3082771,45.6371956,33.3621712,45.6292992,33.4159508z
		 M26.0114937,27.7154541c0.1648083,0.2325821,0.3040695,0.4895535,0.4988098,0.6935654
		c0.8845654,0.9266796,1.9422512,1.391861,3.2546673,1.2435188c1.1049519-0.1248932,1.8237629-0.7380466,2.0316792-1.8397083
		c0.0256157-0.1357384,0.0004063-0.2810707-0.0012493-0.4219589c0.0016117-0.0651073,0.0032253-0.1302147,0.004837-0.1953201
		c0.0145454-0.0494576,0.0432816-0.099472,0.0413666-0.1482849c-0.013752-0.3504047-0.0031071-0.7054501-0.0580502-1.0497932
		c-0.1172199-0.7346725-0.4516354-1.3601894-1.0522785-1.81954c-0.2082691-0.159277-0.4355259-0.2937145-0.6777134-0.4552422
		c0.1122913-0.1349125,0.2062359-0.2832451,0.3340836-0.3915462c0.1312923-0.1112194,0.2957096-0.1833324,0.4547939-0.2780113
		c-0.0323563-0.0352497-0.0595818-0.0730457-0.0943775-0.1016235c-0.7122803-0.585022-1.5147972-0.8448086-2.4386616-0.6883507
		c-1.2266579,0.2077389-2.030426,0.9085236-2.4103069,2.0835285c-0.1521587,0.4706345-0.1721516,0.9447918,0.1442604,1.3840313
		c0.0761185,0.1056671,0.0951977,0.2618694,0.1129513,0.3984146c0.0608654,0.4681416-0.1150532,0.8887939-0.2834148,1.3094711
		C25.9190922,27.5308857,25.9652939,27.6231689,26.0114937,27.7154541z"/>
	<path opacity="0.1" fill="#2BBBAD" d="M40.6713829,15.1243677c0.5044823-0.697278,1.0235367-1.3788624,1.7806664-1.8325033
		c0.3019066-0.1808872,0.5716591-0.1399717,0.8466263,0.0560656c0.3344116,0.2384167,0.5567398,0.5649719,0.749321,0.915822
		c0.4525681,0.8245182,0.7124481,1.7166634,0.8410492,2.6396751c0.1029854,0.7391415,0.1809311,1.4883537,0.1826134,2.2332935
		c0.0019341,0.8564758-0.1232109,1.70257-0.4174652,2.5238667c-0.2862816,0.7990589-0.8121262,0.9544125-1.620636,0.8604717
		c-0.9432869-0.1095982-1.7713966-0.5233574-2.5461502-1.0536232c-0.1717529-0.3556461-0.3739586-0.7001171-0.5093002-1.0691147
		c-0.3426552-0.9342365-0.1979713-1.8670788,0.0658455-2.793375c0.2043419-0.7174702,0.4050598-1.4360065,0.6007652-2.1558695
		C40.6727295,15.3460388,40.6634178,15.2328558,40.6713829,15.1243677z M44.3794022,16.7445126
		c-0.0218124-0.0034885-0.0436287-0.0069771-0.0654449-0.0104637c-0.2001457,0.3045158-0.4868965,0.5042133-0.832016,0.56217
		c-0.3962631,0.0665455-0.803421,0.0680275-1.2057877,0.098526c-0.1045761,0.0079269-0.2089386,0.0186634-0.3670769,0.0329609
		c1.076088,0.8285847,1.2613068,1.0207844,1.4289474,1.4694824c-1.2473564,0.5102005-2.1321869,1.3386288-2.4137383,2.7285881
		c0.2045326,0.0612106,0.3729591,0.1221237,0.5462494,0.1618099c1.3784485,0.3156776,2.2966118-0.2100754,2.7216835-1.5626698
		c0.2202034-0.700695,0.2714043-1.4250393,0.256115-2.1538277C44.4390564,17.6286087,44.4032784,17.1866856,44.3794022,16.7445126z"
		/>
	<path opacity="0.3" fill="#2BBBAD" d="M23.429966,10.5182257c0.0109997,0.0074482,0.0219955,0.0148964,0.0329933,0.0223455
		c-0.0128632-0.0056305-0.0257244-0.01126-0.0386829-0.0167952C23.4241772,10.5238714,23.429966,10.5182257,23.429966,10.5182257z"
		/>
	<path fill="#2BBBAD" d="M21.5928001,23.3885803c-0.1385822,0.312912-0.268446,0.6300411-0.417347,0.9379654
		c-0.4873695,1.0078716-0.9728031,2.0260506-1.7227726,2.8667412c-0.6751213,0.7567863-1.4198112,1.4517174-2.1383896,2.1693516
		c-0.1372871,0.1371098-0.2958736,0.2528934-0.4736137,0.4029884c0.2963696,0.0234566,0.5615196,0.0443363,0.8266506,0.0654469
		c0.6500626,0.051754,1.2829895,0.1828232,1.8810997,0.4461174c0.2191696,0.0964813,0.4192848,0.2362442,0.6280594,0.3562965
		c0.0027561,0.007349,0.0040207,0.01581,0.0085487,0.0218124c0.5870419,0.7786579,0.5926743,1.2815399,0.0397892,2.0988426
		c-0.0735989,0.1087952-0.1154327,0.2483482-0.1396198,0.3796158c-0.0812778,0.441124-0.3600483,0.7397957-0.7022362,0.9870377
		c-0.7076378,0.5113068-1.5226345,0.7808952-2.3524017,1.0106201c-0.0583019,0.0161438-0.1436062-0.0035744-0.196167-0.0377083
		c-0.6659069-0.4324417-1.2962751-0.9116592-1.7513132-1.5726128c-0.1550627-0.2252388-0.2649879-0.4977264-0.3304491-0.7645874
		c-0.0925446-0.3772812,0.0392008-0.5325623,0.4598293-0.5989151c-0.2621813-0.1296883-0.436614-0.3110752-0.4204969-0.5767994
		c0.0134153-0.2211609,0.0927935-0.4383202,0.1429472-0.6572609c0.0065002-0.0146847,0.0130081-0.0293617,0.019515-0.0440388
		c-0.0176229,0.0024567-0.0352478,0.0049114-0.0528727,0.0073681c-0.4801102,0.0998268-0.885849,0.3433895-1.1642504,0.7358265
		c-0.7350883,1.0361862-0.9582396,2.1963882-0.6833973,3.4307327c0.1454897,0.6534157,0.5993977,1.0639572,1.2431812,1.2507706
		c0.8799992,0.2553558,1.6593971-0.0185089,2.4005995-0.47192c0.0988388-0.0604668,0.1836624-0.1438408,0.2429733-0.1911049
		c2.6409512,2.131218,5.5867519,2.5698242,8.7871227,1.725605c0.0119514,0.0172997,0.0239048,0.0345955,0.0358562,0.0518951
		c-0.385685,0.2119713-0.7563725,0.4595757-1.1598053,0.6293793c-1.325798,0.5580215-2.6928329,0.5523033-4.0716057,0.2239227
		c-0.2956429-0.0704079-0.5943222-0.1403046-0.8774414-0.2477455c-0.3070354-0.1165237-0.6064129-0.1467438-0.9331493-0.1110039
		c-1.3461533,0.1472282-2.6340828-0.040432-3.8252344-0.7250824c-0.0116825-0.0067139-0.0292635-0.0031662-0.0441027-0.004406
		c-0.0734434,1.0543098,0.4811068,1.8700714,1.538765,2.2815552c0.7277184,0.283123,1.4899673,0.4242363,2.2582245,0.4974556
		c1.2997723,0.1238823,2.6029682,0.2302895,3.9071865,0.2824478c0.8423214,0.03368,1.6820335-0.0815926,2.5150967-0.2504997
		c0.847744-0.1718788,1.4552631-0.6445007,1.9238949-1.339035c0.5802441-0.8599586,0.858839-1.829895,1.0363827-2.8368797
		c0.0039234-0.0222664,0.0105171-0.0440598,0.0319099-0.1321144c0.1104412,0.7528877,0.1153259,1.4422874-0.0063019,2.1250839
		c-0.0735283,0.4127769-0.1932278,0.8194237-0.3192348,1.2203217c-0.2726059,0.8673019-0.921217,1.3927231-1.6942196,1.7868919
		c-0.9536057,0.4862595-1.9845467,0.70084-3.0390797,0.8045311c-1.9542427,0.1921577-3.8917236,0.027359-5.8145866-0.3304825
		c-0.9842701-0.1831703-1.9200678-0.5003166-2.6917944-1.1774445c-0.7117815-0.6245384-1.0626421-1.4304581-1.1764011-2.3560257
		c-0.0097666-0.0794525-0.0503244-0.18993-0.1109934-0.223156c-1.1189985-0.6128044-1.6925077-1.5866203-1.7894812-2.8242912
		c-0.1069145-1.3645325,0.1558933-2.6645164,0.9239092-3.8246193c0.5441036-0.8218784,1.3372116-1.2706642,2.2762051-1.5405197
		c0.4283609-0.1231079,0.8081646-0.4151726,1.2100286-0.6305637c0.4267111-0.2712536,0.8596697-0.5332947,1.277812-0.8171577
		c0.2702904-0.1834888,0.5188961-0.3989277,0.7772255-0.6000538c0.1510868-0.1185322,0.3021679-0.2370586,0.4796047-0.3762646
		c-0.664299-0.0740986-1.0766945-0.400713-1.2380619-1.0173702c-0.2494087-0.9530907,0.3847256-2.0763245,1.3323898-2.3655224
		c0.7836018-0.23913,1.4928989,0.1579723,1.6880856,0.9583893c0.0467606,0.1917572,0.0455227,0.395216,0.0693798,0.6219864
		c0.2067432-0.2464161,0.410759-0.477951,0.6016083-0.7198734C21.0827179,24.0673199,21.3356304,23.7262688,21.5928001,23.3885803z
		 M18.7538509,30.8920441c-0.0546837-0.1112175-0.0846958-0.2336006-0.160387-0.3117256
		c-0.1117058-0.1152954-0.2434616-0.2270317-0.3883686-0.2916431c-0.7727566-0.3445625-1.5521355-0.3424873-2.3264103,0.0022659
		c-0.0760965,0.0338802-0.1396389,0.0959568-0.2062187,0.1429749
		C16.7005386,30.5867634,17.7037888,30.7359238,18.7538509,30.8920441z M18.7669735,23.8471661
		c-0.4409084,0.0666466-0.7588978,0.2156334-0.9871044,0.5353241c-0.3028069,0.4242001-0.4340515,0.8884068-0.3641777,1.4089127
		c0.0612469,0.4562187,0.2406311,0.643486,0.700779,0.7135124C17.4739666,25.6090508,17.8389359,24.4720554,18.7669735,23.8471661z
		 M16.2204685,32.4194984c-0.2636137,0.1874352-0.5302467,0.1327629-0.7987671,0.0330009
		c-0.1450224-0.0538788-0.3076429-0.0542107-0.3492413,0.1098747c-0.0485678,0.1915741,0.1358709,0.2463074,0.2764568,0.2697639
		C15.7217131,32.8943405,16.0029716,32.7298508,16.2204685,32.4194984z M17.9637604,32.8781357
		c-0.0126648,0.0223961-0.0253296,0.0447922-0.0379963,0.0671883c0.247364,0.1487083,0.4864712,0.3147621,0.7458611,0.4382057
		c0.1154194,0.054924,0.2764168,0.0493736,0.4081593,0.0249939c0.1380043-0.025547,0.1527786-0.1644211,0.0295582-0.2355118
		c-0.0686741-0.0396118-0.163435-0.0320549-0.2450752-0.0514946c-0.2537785-0.0604172-0.5071945-0.1224442-0.7600346-0.1866684
		C18.0557346,32.9225273,18.0105,32.8973694,17.9637604,32.8781357z M19.5761089,24.9626369
		c0.0330811-0.0008183,0.0661621-0.0016346,0.0992413-0.0024529c0.0579834-0.094038,0.1707306-0.1960449,0.1585331-0.2798729
		c-0.0121803-0.0837193-0.1431541-0.1938438-0.2341385-0.2066784c-0.0583076-0.0082226-0.1940536,0.1385841-0.1943913,0.2163296
		C19.4049606,24.7806053,19.5143547,24.8717251,19.5761089,24.9626369z M18.7117424,24.3637466
		c-0.3497829-0.0492306-0.5065804,0.2329235-0.4310398,0.7111187C18.413311,24.8560925,18.5581856,24.6170807,18.7117424,24.3637466
		z"/>
	<path opacity="0.1" fill="#2BBBAD" d="M25.8728905,27.4386044c0.1683617-0.4206772,0.3442802-0.8413296,0.2834148-1.3094711
		c-0.0177536-0.1365452-0.0368328-0.2927475-0.1129513-0.3984146c-0.316412-0.4392395-0.2964191-0.9133968-0.1442604-1.3840313
		c0.3798809-1.175005,1.1836491-1.8757896,2.4103069-2.0835285c0.9238644-0.1564579,1.7263813,0.1033287,2.4386616,0.6883507
		c0.0347958,0.0285778,0.0620213,0.0663738,0.0943775,0.1016235c-0.1590843,0.0946789-0.3235016,0.1667919-0.4547939,0.2780113
		c-0.1278477,0.1083012-0.2217922,0.2566338-0.3340836,0.3915462c0.2421875,0.1615276,0.4694443,0.2959652,0.6777134,0.4552422
		c0.6006432,0.4593506,0.9350586,1.0848675,1.0522785,1.81954c0.0549431,0.3443432,0.0442982,0.6993885,0.0580502,1.0497932
		c0.001915,0.0488129-0.0268211,0.0988274-0.041378,0.1482735c-0.1628819-0.2557621-0.2957649-0.5379868-0.4939728-0.7625465
		c-0.7420464-0.8407097-1.6543217-1.2616711-2.7939892-1.0181007c-0.4962101,0.1060505-0.8494587,0.4402027-1.1812592,0.80089
		C26.8982964,26.6861649,26.4819508,27.1777954,25.8728905,27.4386044z"/>
	<path fill="#2BBBAD" d="M25.8728905,27.4386044c0.6090603-0.2608089,1.0254059-0.7524395,1.4581146-1.2228222
		c0.3318005-0.3606873,0.6850491-0.6948395,1.1812592-0.80089c1.1396675-0.2435703,2.0519428,0.1773911,2.7939892,1.0181007
		c0.1982079,0.2245598,0.3310909,0.5067844,0.4939728,0.7625465c-0.0016003,0.0651169-0.0032139,0.1302242-0.0048313,0.1953411
		c-0.0600471,0.0908375-0.1180801,0.183075-0.1804409,0.2722874c-1.1379852,1.6279793-2.712368,1.9767838-4.4133549,0.9489136
		c-0.4228878-0.2555428-0.794775-0.5954819-1.1901054-0.8966274C25.9652939,27.6231689,25.9190922,27.5308857,25.8728905,27.4386044
		z M29.10429,25.850708c-0.9967327-0.0687809-1.6614513,0.6400814-1.758667,1.4018078
		c-0.0911369,0.7141094,0.3353271,1.4651241,1.1910648,1.4344482c-0.2825336-0.6678391-0.3085728-1.3363514-0.0265141-2.0126476
		c0.0716019-0.1716785,0.1765938-0.2151489,0.3434448-0.1700974c0.1727314,0.0466385,0.3451271,0.098793,0.5211143,0.1272068
		c0.0812454,0.013113,0.1706848-0.0245266,0.2564068-0.0391541c-0.0484676-0.0885086-0.0753441-0.2192039-0.1496487-0.2572346
		c-0.1873207-0.0958786-0.3960171-0.1500053-0.608408-0.2252064C28.9329891,26.0426922,29.008316,25.9582691,29.10429,25.850708z
		 M30.4798756,26.6003895c-0.1101112,0.1494198-0.202877,0.2255592-0.2268372,0.3192883
		c-0.0374928,0.1466732,0.0645542,0.2434578,0.2063179,0.2519073c0.1479816,0.0088215,0.2455006-0.09692,0.2281971-0.2344627
		C30.6756802,26.8427448,30.5819092,26.7586689,30.4798756,26.6003895z"/>
	<path opacity="0.1" fill="#2BBBAD" d="M21.592802,23.3885803c-0.2571716,0.3376884-0.5100842,0.6787395-0.7729416,1.01194
		c-0.1908493,0.2419224-0.394865,0.4734573-0.6016083,0.7198734c-0.0238571-0.2267704-0.0226192-0.4302292-0.0693798-0.6219864
		c-0.1951866-0.8004169-0.9044838-1.1975193-1.6880856-0.9583893c-0.9476643,0.2891979-1.5817986,1.4124317-1.3323898,2.3655224
		c0.1613674,0.6166573,0.5737629,0.9432716,1.2380619,1.0173702c-0.1774368,0.1392059-0.3285179,0.2577324-0.4796047,0.3762646
		c-0.5687351-0.1761093-0.9886131-0.5086422-1.1122646-1.1184464c-0.0852757-0.4205551,0.017477-0.8289757,0.1882153-1.2095222
		c0.3951168-0.8806343,0.9164581-1.6771545,1.7154522-2.2449436c0.2859573-0.203207,0.6265717-0.3294983,0.9971027-0.5189457
		c0.0509548-0.205019-0.0662498-0.4206581-0.264452-0.6057701c0.3439102-0.490696,1.1699867-0.8201637,1.7343864-0.6946964
		c0.5416336,0.120409,0.8885612,0.7340755,0.7610054,1.3752537c-0.0484085,0.2433357-0.1379967,0.478302-0.2041874,0.718359
		c-0.0266075,0.0965004-0.0407791,0.1964321-0.0605946,0.2947998c-0.016468,0.0328274-0.0329494,0.0656567-0.0494308,0.0984859
		L21.592802,23.3885803z"/>
	<path opacity="0.1" fill="#2BBBAD" d="M26.0114937,27.7154541c0.3953304,0.3011456,0.7672176,0.6410847,1.1901054,0.8966274
		c1.7009869,1.0278702,3.2753696,0.6790657,4.4133549-0.9489136c0.0623608-0.0892124,0.1203938-0.1814499,0.1804409-0.2722874
		c0.0016613,0.1408787,0.0268707,0.286211,0.001255,0.4219494c-0.2079163,1.1016617-0.9267273,1.7148151-2.0316792,1.8397083
		c-1.3124161,0.1483421-2.3701019-0.3168392-3.2546673-1.2435188C26.3155632,28.2050076,26.176302,27.9480362,26.0114937,27.7154541
		z"/>
	<path fill="#2BBBAD" d="M21.5920868,23.3937492c0.0164814-0.0328293,0.0329628-0.0656586,0.0494328-0.0984859
		C21.6250324,23.3280926,21.6085606,23.36092,21.5920868,23.3937492z"/>
	<path fill="#2BBBAD" d="M44.3794022,16.7445126c0.0238762,0.442173,0.0596542,0.8840961,0.0689316,1.3265762
		c0.0152893,0.7287884-0.0359116,1.4531326-0.256115,2.1538277c-0.4250717,1.3525944-1.343235,1.8783474-2.7216835,1.5626698
		c-0.1732903-0.0396862-0.3417168-0.1005993-0.5462494-0.1618099c0.2815514-1.3899593,1.1663818-2.2183876,2.4137383-2.7285881
		c-0.1676407-0.448698-0.3528595-0.6408978-1.4289474-1.4694824c0.1581383-0.0142975,0.2625008-0.025034,0.3670769-0.0329609
		c0.4023666-0.0304985,0.8095245-0.0319805,1.2057877-0.098526c0.3451195-0.0579567,0.6318703-0.2576542,0.832016-0.56217
		C44.3357735,16.7375355,44.3575897,16.741024,44.3794022,16.7445126z"/>
	<path opacity="0" fill="#FFFFFF" d="M18.7538509,30.8920441c-1.0500622-0.1561203-2.0533123-0.3052807-3.0813847-0.458128
		c0.0665798-0.0470181,0.1301222-0.1090946,0.2062187-0.1429749c0.7742748-0.3447533,1.5536537-0.3468285,2.3264103-0.0022659
		c0.144907,0.0646114,0.2766628,0.1763477,0.3883686,0.2916431C18.6691551,30.6584435,18.6991673,30.7808266,18.7538509,30.8920441z
		"/>
	<path opacity="0" fill="#FFFFFF" d="M18.7669735,23.8471661c-0.9280376,0.6248894-1.2930069,1.7618847-0.6505032,2.6577492
		c-0.4601479-0.0700264-0.6395321-0.2572937-0.700779-0.7135124c-0.0698738-0.5205059,0.0613708-0.9847126,0.3641777-1.4089127
		C18.0080757,24.0627995,18.3260651,23.9138126,18.7669735,23.8471661z"/>
	<path opacity="0" fill="#FFFFFF" d="M16.2204685,32.4194984c-0.2174969,0.3103523-0.4987555,0.4748421-0.8715515,0.4126396
		c-0.1405859-0.0234566-0.3250246-0.0781898-0.2764568-0.2697639c0.0415983-0.1640854,0.2042189-0.1637535,0.3492413-0.1098747
		C15.6902218,32.5522614,15.9568548,32.6069336,16.2204685,32.4194984z"/>
	<path opacity="0" fill="#FFFFFF" d="M17.9637604,32.8781357c0.0467396,0.0192337,0.0919743,0.0443916,0.1404724,0.0567131
		c0.25284,0.0642242,0.5062561,0.1262512,0.7600346,0.1866684c0.0816402,0.0194397,0.1764011,0.0118828,0.2450752,0.0514946
		c0.1232204,0.0710907,0.1084461,0.2099648-0.0295582,0.2355118c-0.1317425,0.0243797-0.2927399,0.0299301-0.4081593-0.0249939
		c-0.2593899-0.1234436-0.498497-0.2894974-0.7458611-0.4382057C17.9384308,32.9229279,17.9510956,32.9005318,17.9637604,32.8781357
		z"/>
	<path opacity="0" fill="#FFFFFF" d="M19.5761089,24.9626369c-0.0617542-0.0909119-0.1711483-0.1820316-0.1707554-0.2726746
		c0.0003376-0.0777454,0.1360836-0.2245522,0.1943913-0.2163296c0.0909843,0.0128345,0.2219582,0.1229591,0.2341385,0.2066784
		c0.0121975,0.083828-0.1005497,0.1858349-0.1585331,0.2798729C19.642271,24.9610023,19.60919,24.9618187,19.5761089,24.9626369z"/>
	<path opacity="0" fill="#FFFFFF" d="M18.7117424,24.3637466c-0.1535568,0.253334-0.2984314,0.4923458-0.4310398,0.7111187
		C18.205162,24.5966702,18.3619595,24.3145161,18.7117424,24.3637466z"/>
	<path opacity="0.1" fill="#2BBBAD" d="M14.9015598,30.8868618c0.0176249-0.0024567,0.0352497-0.0049114,0.0528727-0.0073681
		c-0.0065069,0.014677-0.0130148,0.0293541-0.019515,0.0440388C14.9238043,30.911314,14.9126825,30.8990879,14.9015598,30.8868618z"
		/>
	<path opacity="0" fill="#FFFFFF" d="M29.10429,25.850708c-0.095974,0.1075611-0.1713009,0.1919842-0.2312069,0.2591228
		c0.2123909,0.075201,0.4210873,0.1293278,0.608408,0.2252064c0.0743046,0.0380306,0.101181,0.168726,0.1496487,0.2572346
		c-0.085722,0.0146275-0.1751614,0.0522671-0.2564068,0.0391541c-0.1759872-0.0284138-0.3483829-0.0805683-0.5211143-0.1272068
		c-0.166851-0.0450516-0.271843-0.0015812-0.3434448,0.1700974c-0.2820587,0.6762962-0.2560196,1.3448086,0.0265141,2.0126476
		c-0.8557377,0.0306759-1.2822018-0.7203388-1.1910648-1.4344482C27.4428387,26.4907894,28.1075573,25.7819271,29.10429,25.850708z"
		/>
	<path opacity="0" fill="#FFFFFF" d="M30.4798756,26.6003895c0.1020336,0.1582794,0.1958046,0.2423553,0.2076778,0.3367329
		c0.0173035,0.1375427-0.0802155,0.2432842-0.2281971,0.2344627c-0.1417637-0.0084496-0.2438107-0.1052341-0.2063179-0.2519073
		C30.2769985,26.8259487,30.3697643,26.7498093,30.4798756,26.6003895z"/>
</g>
</svg>
